# xmcd CD database file
# Copyright (C) 1997 Ti Kan
#
# Track frame offsets:
#  150
#  13530
#  29672
#  45915
#  63380
#  83535
#  89572
#  108507
#  129312
#  142987
#  155735
#  158955
#
# Disc length: 2458 seconds
#
# Revision: 1
# Processed by: cddbd v1.4b41PL1 Copyright (c) Steve Scherf et al.
# Submitted via: CDWizzard Release:4.32
#
DISCID=9409980c
DTITLE=Los redondos - Lobo suelto-Cordero atado
DYEAR=1900
DGENRE=
TTITLE0=Yo canibal
TTITLE1=Ladron de mi cerebro
TTITLE2=Es hora de levantarse, querido (dormiste bien?)
TTITLE3=Perdiendo el tiempo
TTITLE4=Cana seca y un membrillo
TTITLE5=Soga de Cain
TTITLE6=Lavi-rap
TTITLE7=El arte del buen comer
TTITLE8=Lobo, estas?
TTITLE9=Botija rapado
TTITLE10=San Telmo
TTITLE11=Etiqueta negra
EXTD=
EXTT0=
EXTT1=
EXTT2=
EXTT3=
EXTT4=
EXTT5=
EXTT6=
EXTT7=
EXTT8=
EXTT9=
EXTT10=
EXTT11=
PLAYORDER=
